<?xml version="1.0" encoding="UTF-8" standalone="no"?>
<!DOCTYPE svg PUBLIC "-//W3C//DTD SVG 1.1//EN"
 "http://www.w3.org/Graphics/SVG/1.1/DTD/svg11.dtd">
<!-- Generated by graphviz version 5.0.0 (20220707.1540)
 -->
<!-- Title: dependencies Pages: 1 -->
<svg width="869pt" height="174pt"
 viewBox="0.00 0.00 869.00 173.80" xmlns="http://www.w3.org/2000/svg" xmlns:xlink="http://www.w3.org/1999/xlink">
<g id="graph0" class="graph" transform="scale(1 1) rotate(0) translate(4 169.8)">
<title>dependencies</title>
<polygon fill="white" stroke="transparent" points="-4,4 -4,-169.8 865,-169.8 865,4 -4,4"/>
<text text-anchor="middle" x="430.5" y="-8.2" font-family="sans-serif" font-size="14.00">dependencies</text>
<g id="clust1" class="cluster">
<title>cluster_UsersModule</title>
<polygon fill="none" stroke="black" stroke-dasharray="1,5" points="8,-32.8 8,-157.8 853,-157.8 853,-32.8 8,-32.8"/>
</g>
<g id="clust8" class="cluster">
<title>cluster_UsersModule_imports</title>
<polygon fill="none" stroke="black" points="693,-40.8 693,-92.8 845,-92.8 845,-40.8 693,-40.8"/>
</g>
<g id="clust2" class="cluster">
<title>cluster_UsersModule_declarations</title>
<polygon fill="none" stroke="black" points="16,-40.8 16,-92.8 685,-92.8 685,-40.8 16,-40.8"/>
</g>
<!-- LoginComponent -->
<g id="node1" class="node">
<title>LoginComponent</title>
<polygon fill="#ffffb3" stroke="black" points="677.27,-84.8 562.73,-84.8 562.73,-48.8 677.27,-48.8 677.27,-84.8"/>
<text text-anchor="middle" x="620" y="-62.6" font-family="Times,serif" font-size="14.00">LoginComponent</text>
</g>
<!-- UsersModule -->
<g id="node6" class="node">
<title>UsersModule</title>
<polygon fill="#8dd3c7" stroke="black" points="465.94,-149.8 462.94,-153.8 441.94,-153.8 438.94,-149.8 374.06,-149.8 374.06,-113.8 465.94,-113.8 465.94,-149.8"/>
<text text-anchor="middle" x="420" y="-127.6" font-family="Times,serif" font-size="14.00">UsersModule</text>
</g>
<!-- LoginComponent&#45;&gt;UsersModule -->
<g id="edge1" class="edge">
<title>LoginComponent&#45;&gt;UsersModule</title>
<path fill="none" stroke="black" d="M620,-84.82C620,-102.17 620,-125.8 620,-125.8 620,-125.8 475.88,-125.8 475.88,-125.8"/>
<polygon fill="black" stroke="black" points="475.88,-122.3 465.88,-125.8 475.88,-129.3 475.88,-122.3"/>
</g>
<!-- ProfileComponent -->
<g id="node2" class="node">
<title>ProfileComponent</title>
<polygon fill="#ffffb3" stroke="black" points="544.94,-84.8 425.06,-84.8 425.06,-48.8 544.94,-48.8 544.94,-84.8"/>
<text text-anchor="middle" x="485" y="-62.6" font-family="Times,serif" font-size="14.00">ProfileComponent</text>
</g>
<!-- ProfileComponent&#45;&gt;UsersModule -->
<g id="edge2" class="edge">
<title>ProfileComponent&#45;&gt;UsersModule</title>
<path fill="none" stroke="black" d="M445.5,-84.91C445.5,-84.91 445.5,-103.79 445.5,-103.79"/>
<polygon fill="black" stroke="black" points="442,-103.79 445.5,-113.79 449,-103.79 442,-103.79"/>
</g>
<!-- TestComponent -->
<g id="node3" class="node">
<title>TestComponent</title>
<polygon fill="#ffffb3" stroke="black" points="407.94,-84.8 302.06,-84.8 302.06,-48.8 407.94,-48.8 407.94,-84.8"/>
<text text-anchor="middle" x="355" y="-62.6" font-family="Times,serif" font-size="14.00">TestComponent</text>
</g>
<!-- TestComponent&#45;&gt;UsersModule -->
<g id="edge3" class="edge">
<title>TestComponent&#45;&gt;UsersModule</title>
<path fill="none" stroke="black" d="M391,-84.91C391,-84.91 391,-103.79 391,-103.79"/>
<polygon fill="black" stroke="black" points="387.5,-103.79 391,-113.79 394.5,-103.79 387.5,-103.79"/>
</g>
<!-- UserListComponent -->
<g id="node4" class="node">
<title>UserListComponent</title>
<polygon fill="#ffffb3" stroke="black" points="284.55,-84.8 155.45,-84.8 155.45,-48.8 284.55,-48.8 284.55,-84.8"/>
<text text-anchor="middle" x="220" y="-62.6" font-family="Times,serif" font-size="14.00">UserListComponent</text>
</g>
<!-- UserListComponent&#45;&gt;UsersModule -->
<g id="edge4" class="edge">
<title>UserListComponent&#45;&gt;UsersModule</title>
<path fill="none" stroke="black" d="M220,-84.82C220,-102.17 220,-125.8 220,-125.8 220,-125.8 364.12,-125.8 364.12,-125.8"/>
<polygon fill="black" stroke="black" points="364.12,-129.3 374.12,-125.8 364.12,-122.3 364.12,-129.3"/>
</g>
<!-- UsersComponent -->
<g id="node5" class="node">
<title>UsersComponent</title>
<polygon fill="#ffffb3" stroke="black" points="137.71,-84.8 24.29,-84.8 24.29,-48.8 137.71,-48.8 137.71,-84.8"/>
<text text-anchor="middle" x="81" y="-62.6" font-family="Times,serif" font-size="14.00">UsersComponent</text>
</g>
<!-- UsersComponent&#45;&gt;UsersModule -->
<g id="edge5" class="edge">
<title>UsersComponent&#45;&gt;UsersModule</title>
<path fill="none" stroke="black" d="M81,-85.08C81,-106.12 81,-137.8 81,-137.8 81,-137.8 364.28,-137.8 364.28,-137.8"/>
<polygon fill="black" stroke="black" points="364.28,-141.3 374.28,-137.8 364.28,-134.3 364.28,-141.3"/>
</g>
<!-- UsersRoutingModule -->
<g id="node7" class="node">
<title>UsersRoutingModule</title>
<polygon fill="#8dd3c7" stroke="black" points="837.05,-84.8 834.05,-88.8 813.05,-88.8 810.05,-84.8 700.95,-84.8 700.95,-48.8 837.05,-48.8 837.05,-84.8"/>
<text text-anchor="middle" x="769" y="-62.6" font-family="Times,serif" font-size="14.00">UsersRoutingModule</text>
</g>
<!-- UsersRoutingModule&#45;&gt;UsersModule -->
<g id="edge6" class="edge">
<title>UsersRoutingModule&#45;&gt;UsersModule</title>
<path fill="none" stroke="black" d="M769,-85.08C769,-106.12 769,-137.8 769,-137.8 769,-137.8 475.98,-137.8 475.98,-137.8"/>
<polygon fill="black" stroke="black" points="475.98,-134.3 465.98,-137.8 475.98,-141.3 475.98,-134.3"/>
</g>
</g>
</svg>
