<?xml version="1.0" encoding="UTF-8" standalone="no"?>
<!DOCTYPE svg PUBLIC "-//W3C//DTD SVG 1.1//EN"
 "http://www.w3.org/Graphics/SVG/1.1/DTD/svg11.dtd">
<!-- Generated by graphviz version 5.0.0 (20220707.1540)
 -->
<!-- Title: dependencies Pages: 1 -->
<svg width="1060pt" height="174pt"
 viewBox="0.00 0.00 1060.00 173.80" xmlns="http://www.w3.org/2000/svg" xmlns:xlink="http://www.w3.org/1999/xlink">
<g id="graph0" class="graph" transform="scale(1 1) rotate(0) translate(4 169.8)">
<title>dependencies</title>
<polygon fill="white" stroke="transparent" points="-4,4 -4,-169.8 1056,-169.8 1056,4 -4,4"/>
<text text-anchor="middle" x="526" y="-8.2" font-family="sans-serif" font-size="14.00">dependencies</text>
<g id="clust1" class="cluster">
<title>cluster_ProductsModule</title>
<polygon fill="none" stroke="black" stroke-dasharray="1,5" points="8,-32.8 8,-157.8 1044,-157.8 1044,-32.8 8,-32.8"/>
</g>
<g id="clust2" class="cluster">
<title>cluster_ProductsModule_declarations</title>
<polygon fill="none" stroke="black" points="194,-40.8 194,-92.8 1036,-92.8 1036,-40.8 194,-40.8"/>
</g>
<g id="clust8" class="cluster">
<title>cluster_ProductsModule_imports</title>
<polygon fill="none" stroke="black" points="16,-40.8 16,-92.8 186,-92.8 186,-40.8 16,-40.8"/>
</g>
<!-- AdminProductComponent -->
<g id="node1" class="node">
<title>AdminProductComponent</title>
<polygon fill="#ffffb3" stroke="black" points="1027.77,-84.8 864.23,-84.8 864.23,-48.8 1027.77,-48.8 1027.77,-84.8"/>
<text text-anchor="middle" x="946" y="-62.6" font-family="Times,serif" font-size="14.00">AdminProductComponent</text>
</g>
<!-- ProductsModule -->
<g id="node6" class="node">
<title>ProductsModule</title>
<polygon fill="#8dd3c7" stroke="black" points="561.05,-149.8 558.05,-153.8 537.05,-153.8 534.05,-149.8 452.95,-149.8 452.95,-113.8 561.05,-113.8 561.05,-149.8"/>
<text text-anchor="middle" x="507" y="-127.6" font-family="Times,serif" font-size="14.00">ProductsModule</text>
</g>
<!-- AdminProductComponent&#45;&gt;ProductsModule -->
<g id="edge1" class="edge">
<title>AdminProductComponent&#45;&gt;ProductsModule</title>
<path fill="none" stroke="black" d="M946,-85.08C946,-106.12 946,-137.8 946,-137.8 946,-137.8 571.27,-137.8 571.27,-137.8"/>
<polygon fill="black" stroke="black" points="571.27,-134.3 561.27,-137.8 571.27,-141.3 571.27,-134.3"/>
</g>
<!-- DetailProductComponent -->
<g id="node2" class="node">
<title>DetailProductComponent</title>
<polygon fill="#ffffb3" stroke="black" points="846.59,-84.8 687.41,-84.8 687.41,-48.8 846.59,-48.8 846.59,-84.8"/>
<text text-anchor="middle" x="767" y="-62.6" font-family="Times,serif" font-size="14.00">DetailProductComponent</text>
</g>
<!-- DetailProductComponent&#45;&gt;ProductsModule -->
<g id="edge2" class="edge">
<title>DetailProductComponent&#45;&gt;ProductsModule</title>
<path fill="none" stroke="black" d="M767,-84.82C767,-102.17 767,-125.8 767,-125.8 767,-125.8 571.19,-125.8 571.19,-125.8"/>
<polygon fill="black" stroke="black" points="571.19,-122.3 561.19,-125.8 571.19,-129.3 571.19,-122.3"/>
</g>
<!-- FormProductComponent -->
<g id="node3" class="node">
<title>FormProductComponent</title>
<polygon fill="#ffffb3" stroke="black" points="669.72,-84.8 514.28,-84.8 514.28,-48.8 669.72,-48.8 669.72,-84.8"/>
<text text-anchor="middle" x="592" y="-62.6" font-family="Times,serif" font-size="14.00">FormProductComponent</text>
</g>
<!-- FormProductComponent&#45;&gt;ProductsModule -->
<g id="edge3" class="edge">
<title>FormProductComponent&#45;&gt;ProductsModule</title>
<path fill="none" stroke="black" d="M537.83,-84.91C537.83,-84.91 537.83,-103.79 537.83,-103.79"/>
<polygon fill="black" stroke="black" points="534.33,-103.79 537.83,-113.79 541.33,-103.79 534.33,-103.79"/>
</g>
<!-- ListProductComponent -->
<g id="node4" class="node">
<title>ListProductComponent</title>
<polygon fill="#ffffb3" stroke="black" points="496.16,-84.8 349.84,-84.8 349.84,-48.8 496.16,-48.8 496.16,-84.8"/>
<text text-anchor="middle" x="423" y="-62.6" font-family="Times,serif" font-size="14.00">ListProductComponent</text>
</g>
<!-- ListProductComponent&#45;&gt;ProductsModule -->
<g id="edge4" class="edge">
<title>ListProductComponent&#45;&gt;ProductsModule</title>
<path fill="none" stroke="black" d="M474.53,-84.91C474.53,-84.91 474.53,-103.79 474.53,-103.79"/>
<polygon fill="black" stroke="black" points="471.03,-103.79 474.53,-113.79 478.03,-103.79 471.03,-103.79"/>
</g>
<!-- ProductsComponent -->
<g id="node5" class="node">
<title>ProductsComponent</title>
<polygon fill="#ffffb3" stroke="black" points="332.33,-84.8 201.67,-84.8 201.67,-48.8 332.33,-48.8 332.33,-84.8"/>
<text text-anchor="middle" x="267" y="-62.6" font-family="Times,serif" font-size="14.00">ProductsComponent</text>
</g>
<!-- ProductsComponent&#45;&gt;ProductsModule -->
<g id="edge5" class="edge">
<title>ProductsComponent&#45;&gt;ProductsModule</title>
<path fill="none" stroke="black" d="M267,-84.82C267,-102.17 267,-125.8 267,-125.8 267,-125.8 442.84,-125.8 442.84,-125.8"/>
<polygon fill="black" stroke="black" points="442.84,-129.3 452.84,-125.8 442.84,-122.3 442.84,-129.3"/>
</g>
<!-- ProductsRoutingModule -->
<g id="node7" class="node">
<title>ProductsRoutingModule</title>
<polygon fill="#8dd3c7" stroke="black" points="177.67,-84.8 174.67,-88.8 153.67,-88.8 150.67,-84.8 24.33,-84.8 24.33,-48.8 177.67,-48.8 177.67,-84.8"/>
<text text-anchor="middle" x="101" y="-62.6" font-family="Times,serif" font-size="14.00">ProductsRoutingModule</text>
</g>
<!-- ProductsRoutingModule&#45;&gt;ProductsModule -->
<g id="edge6" class="edge">
<title>ProductsRoutingModule&#45;&gt;ProductsModule</title>
<path fill="none" stroke="black" d="M101,-85.08C101,-106.12 101,-137.8 101,-137.8 101,-137.8 442.67,-137.8 442.67,-137.8"/>
<polygon fill="black" stroke="black" points="442.67,-141.3 452.67,-137.8 442.67,-134.3 442.67,-141.3"/>
</g>
</g>
</svg>
